<?xml version="1.0" encoding="utf-8"?>
<!-- Generator: Adobe Illustrator 16.0.0, SVG Export Plug-In . SVG Version: 6.00 Build 0)  -->
<!DOCTYPE svg PUBLIC "-//W3C//DTD SVG 1.1//EN" "http://www.w3.org/Graphics/SVG/1.1/DTD/svg11.dtd">
<svg version="1.1" id="Layer_1" xmlns="http://www.w3.org/2000/svg" xmlns:xlink="http://www.w3.org/1999/xlink" x="0px" y="0px"
	 width="276.864px" height="276.864px" viewBox="0 0 276.864 276.864" enable-background="new 0 0 276.864 276.864"
	 xml:space="preserve">
<circle fill="#2BA6CA" cx="139.545" cy="139.545" r="130"/>
<g>
	<path d="M76.79,183.778c-16.33,16.56-8.74,35.879,13.57,35.879c17.25,0,30.819-14.029,42.319-34.039l68.079-118.908
		c-10.811,5.75-24.149,8.97-37.029,8.97c-6.21,0-20.7-0.92-26.22-0.92c-20.47,0-34.5,12.419-34.5,25.069
		c0,7.36,3.22,14.03,11.5,18.629l-11.73,14.72c-12.88-6.899-19.09-18.859-19.09-31.049c0-26.449,24.15-45.769,58.879-45.769
		c5.061,0,18.63,0.23,23.92,0.23c25.529,0,46.919-11.73,46.919-11.73l12.42,20.93h-0.23l-71.759,124.428
		c-20.239,34.959-42.549,48.299-66.238,48.299c-36.109,0-54.509-39.789-23.689-67.158L76.79,183.778z"/>
</g>
</svg>
